<svg xmlns="http://www.w3.org/2000/svg" viewBox="0 0 512 512"><path d="M498.3 234.2c-1.2-10.3-1.7-20.8-3.7-31a310 310 0 0 0-9.6-36.6 184.1 184.1 0 0 0-30.9-57.5 251 251 0 0 0-18.8-21.7 237.4 237.4 0 0 0-47.1-36.1 240.8 240.8 0 0 0-56.8-24.6c-11-3.1-22.3-5.4-33.5-7.6-6.8-1.3-13.7-1.7-20.6-2.5-.3 0-.6-.4-.9-.6h-32.3c-2.4.4-4.8.9-7.2 1.2a179.3 179.3 0 0 0-34.3 7.1 221.5 221.5 0 0 0-39.8 16.4 281.4 281.4 0 0 0-38.1 24.2c-6.2 4.6-12.3 9.4-18 14.5-10.2 9.1-20.4 18.3-29.9 28.2a244 244 0 0 0-33.6 44 206.5 206.5 0 0 0-20.5 44.6A198 198 0 0 0 15 231a201 201 0 0 0-1.6 35.4 300 300 0 0 0 4.4 40.2 227 227 0 0 0 16.7 53.3 210.5 210.5 0 0 0 24 39.5 213.6 213.6 0 0 0 26.4 28.4 251.3 251.3 0 0 0 41.8 30.7 287.8 287.8 0 0 0 55.9 25.3 269.5 269.5 0 0 0 40.6 9.8c6.1 1 12.3 1.3 18.4 1.9a4.1 4.1 0 0 1 1.2.6h32.3c2.5-.4 5-.9 7.5-1.1 16.3-1.3 32.1-5.3 47.5-10.7a220 220 0 0 0 49-24c9.7-6.4 19.4-13.1 28.7-20.1 5.8-4.3 11-9.5 16.3-14.5 4-3.7 7.8-7.6 11.5-11.5a232.2 232.2 0 0 0 31.4-41.6c9.5-16 17.4-32.9 22.3-50.9 2.9-10.4 4.9-21 7-31.7 1-5.3 1.3-10.7 1.9-16.1 0-.3.4-.6.6-.9v-37a10 10 0 0 1-.5-1.8M337.2 233s-16.6-3-28.5-3c-27.2 0-33.6 14.9-33.6 37v93.8h-73.5V170.1h73.5V202c8.9-26.8 26.8-36.2 62-36.2z"/></svg>